# xmcd CD database file
#
# Track frame offsets:
#	150
#	11985
#	30017
#	42485
#	56072
#	67100
#	86330
#	100632
#	115557
#	129570
#	142232
#	156912
#	168505
#	181360
#	192647
#	205657
#	218792
#	234035
#	252865
#	266590
#
# Disc length: 3753 seconds
#
# Revision: 0
# Processed by: cddbd v1.5.1PL0 Copyright (c) Steve Scherf et al.
# Submitted via: CDex 1.51
#
DISCID=180ea714
DTITLE=Django Reinhardt - The Best of Django Reinhardt
DYEAR=1900
DGENRE=Jazz
TTITLE0=Minor Swing
TTITLE1=Honeysuckle Rose
TTITLE2=Djangology
TTITLE3=After You've Gone
TTITLE4=Swing 42
TTITLE5=Beyond the Sea
TTITLE6=Lover Man
TTITLE7=Georgia on My Mind
TTITLE8=Avalon
TTITLE9=Rose Room
TTITLE10=Star Dust
TTITLE11=Dinah
TTITLE12=Lady Be Good
TTITLE13=I Saw Stars
TTITLE14=Blue Drag
TTITLE15=Confessin'
TTITLE16=Nuages
TTITLE17=Troublant Bolero
TTITLE18=Sweet Chorus
TTITLE19=Stockholm
EXTD=
EXTT0=
EXTT1=
EXTT2=
EXTT3=
EXTT4=
EXTT5=
EXTT6=
EXTT7=
EXTT8=
EXTT9=
EXTT10=
EXTT11=
EXTT12=
EXTT13=
EXTT14=
EXTT15=
EXTT16=
EXTT17=
EXTT18=
EXTT19=
PLAYORDER=
